<svg width="30" height="31" viewBox="0 0 30 31" fill="none" xmlns="http://www.w3.org/2000/svg">
<path d="M21.2956 0H8.71935C3.25662 0 0 3.25662 0 8.71934V21.2806C0 26.7583 3.25662 30.015 8.71935 30.015H21.2806C26.7433 30.015 29.9999 26.7583 29.9999 21.2956V8.71934C30.015 3.25662 26.7583 0 21.2956 0ZM15.0075 20.8304C11.7959 20.8304 9.18458 18.2191 9.18458 15.0075C9.18458 11.7959 11.7959 9.18458 15.0075 9.18458C18.2191 9.18458 20.8304 11.7959 20.8304 15.0075C20.8304 18.2191 18.2191 20.8304 15.0075 20.8304ZM23.8919 7.32365C23.8169 7.50374 23.7118 7.66882 23.5767 7.8189C23.4267 7.95396 23.2616 8.05902 23.0815 8.13405C22.9014 8.20909 22.7063 8.25411 22.5112 8.25411C22.106 8.25411 21.7308 8.10404 21.4457 7.8189C21.3106 7.66882 21.2056 7.50374 21.1305 7.32365C21.0555 7.14356 21.0105 6.94846 21.0105 6.75336C21.0105 6.55827 21.0555 6.36317 21.1305 6.18308C21.2056 5.98798 21.3106 5.83791 21.4457 5.68783C21.7909 5.34266 22.3161 5.17758 22.7964 5.28263C22.9014 5.29764 22.9915 5.32765 23.0815 5.37268C23.1715 5.40269 23.2616 5.44771 23.3516 5.50774C23.4267 5.55277 23.5017 5.6278 23.5767 5.68783C23.7118 5.83791 23.8169 5.98798 23.8919 6.18308C23.9669 6.36317 24.012 6.55827 24.012 6.75336C24.012 6.94846 23.9669 7.14356 23.8919 7.32365Z" fill="#292D32"/>
</svg>
