<svg width="16" height="16" viewBox="0 0 16 16" fill="none" xmlns="http://www.w3.org/2000/svg">
<path d="M12.4962 7.00136C12.1522 7.00136 11.8802 6.72136 11.8802 6.38532C11.8802 6.08932 11.5841 5.47331 11.0881 4.93731C10.6001 4.4173 10.0641 4.1133 9.61613 4.1133C9.27213 4.1133 9.00012 3.8333 9.00012 3.49729C9.00012 3.16129 9.28013 2.88129 9.61613 2.88129C10.4161 2.88129 11.2561 3.31329 11.9922 4.0893C12.6802 4.81731 13.1202 5.72131 13.1202 6.37732C13.1202 6.72136 12.8402 7.00136 12.4962 7.00136Z" fill="#292D32"/>
<path d="M15.384 7.00007C15.04 7.00007 14.768 6.72007 14.768 6.38406C14.768 3.54404 12.456 1.24001 9.62394 1.24001C9.27994 1.24001 9.00793 0.96001 9.00793 0.624006C9.00793 0.288003 9.27994 0 9.61594 0C13.136 0 16 2.86403 16 6.38406C16 6.72007 15.72 7.00007 15.384 7.00007Z" fill="#292D32"/>
<path d="M7.24007 10.3601L5.76006 11.8401C5.44805 12.1521 4.95205 12.1521 4.63205 11.8481C4.54405 11.7601 4.45604 11.6801 4.36804 11.5921C3.54404 10.7601 2.80003 9.8881 2.13602 8.97609C1.48001 8.06408 0.95201 7.15207 0.568006 6.24806C0.192002 5.33605 0 4.46405 0 3.63204C0 3.08803 0.0960009 2.56803 0.288003 2.08802C0.480005 1.60002 0.784008 1.15201 1.20801 0.752008C1.72002 0.248003 2.28002 0 2.87203 0C3.09603 0 3.32003 0.0480005 3.52004 0.144002C3.72804 0.240002 3.91204 0.384004 4.05604 0.592006L5.91206 3.20803C6.05606 3.40803 6.16006 3.59204 6.23206 3.76804C6.30406 3.93604 6.34406 4.10404 6.34406 4.25604C6.34406 4.44805 6.28806 4.64005 6.17606 4.82405C6.07206 5.00805 5.92006 5.20005 5.72806 5.39205L5.12005 6.02406C5.03205 6.11206 4.99205 6.21606 4.99205 6.34406C4.99205 6.40807 5.00005 6.46407 5.01605 6.52807C5.04005 6.59207 5.06405 6.64007 5.08005 6.68807C5.22405 6.95207 5.47205 7.29607 5.82406 7.71208C6.18406 8.12808 6.56807 8.55209 6.98407 8.97609C7.06407 9.05609 7.15207 9.13609 7.23207 9.21609C7.55208 9.5281 7.56008 10.0401 7.24007 10.3601Z" fill="#292D32"/>
<path d="M15.9758 13.0634C15.9758 13.2874 15.9358 13.5194 15.8558 13.7434C15.8318 13.8074 15.8078 13.8714 15.7758 13.9354C15.6398 14.2234 15.4638 14.4954 15.2318 14.7514C14.8398 15.1834 14.4078 15.4954 13.9198 15.6954C13.9118 15.6954 13.9038 15.7034 13.8958 15.7034C13.4238 15.8954 12.9118 15.9994 12.3598 15.9994C11.5438 15.9994 10.6717 15.8074 9.75174 15.4154C8.83173 15.0234 7.91172 14.4954 6.99971 13.8314C6.68771 13.5994 6.37571 13.3674 6.07971 13.1194L8.69573 10.5034C8.91973 10.6714 9.11973 10.7994 9.28774 10.8874C9.32774 10.9034 9.37574 10.9274 9.43174 10.9514C9.49574 10.9754 9.55974 10.9834 9.63174 10.9834C9.76774 10.9834 9.87174 10.9354 9.95974 10.8474L10.5677 10.2474C10.7678 10.0474 10.9598 9.89538 11.1438 9.79938C11.3278 9.68738 11.5118 9.63138 11.7118 9.63138C11.8638 9.63138 12.0238 9.66338 12.1998 9.73538C12.3758 9.80738 12.5598 9.91138 12.7598 10.0474L15.4078 11.9274C15.6158 12.0714 15.7598 12.2394 15.8478 12.4394C15.9278 12.6394 15.9758 12.8394 15.9758 13.0634Z" fill="#292D32"/>
</svg>
