<svg width="31" height="31" viewBox="0 0 31 31" fill="none" xmlns="http://www.w3.org/2000/svg">
<path d="M5.78946 2H3.68946C2.18946 2 1.43946 3.485 2.48946 4.43L11.0395 12.125C13.4394 14.285 17.4894 14.285 19.8894 12.125L28.4394 4.43C29.6394 3.485 28.8894 2 27.3894 2H25.2894C24.0894 2 22.8894 2.405 21.9894 3.215L16.5894 8.075C15.9894 8.615 14.9394 8.615 14.3394 8.075L9.08946 3.215C8.18946 2.405 6.98946 2 5.78946 2Z" stroke="#17191C" stroke-width="3" stroke-miterlimit="10" stroke-linecap="round" stroke-linejoin="round"/>
<path d="M5.78961 29.49H3.68961C2.33961 29.49 1.58961 28.005 2.63961 27.06L11.0396 19.365C13.4396 17.205 17.4896 17.205 19.8896 19.365L28.4396 27.06C29.4896 28.005 28.7396 29.49 27.3896 29.49H25.2896C24.0896 29.49 22.8896 29.085 21.9896 28.275L16.5896 23.415C15.9896 22.875 14.9396 22.875 14.3396 23.415L8.93961 28.275C8.18961 28.95 6.98961 29.49 5.78961 29.49Z" stroke="#17191C" stroke-width="3" stroke-miterlimit="10" stroke-linecap="round" stroke-linejoin="round"/>
</svg>
