<svg width="18" height="11" viewBox="0 0 18 11" fill="none" xmlns="http://www.w3.org/2000/svg">
<path d="M4 2.46767V0.458316H18V2.46767H4ZM4 6.48638V4.47702H18V6.48638H4ZM4 10.5051V8.49573H18V10.5051H4ZM1 2.46767C0.71667 2.46767 0.479003 2.37122 0.287003 2.17832C0.0950034 1.98542 -0.000663206 1.74698 3.46021e-06 1.46299C3.46021e-06 1.17833 0.0960036 0.939557 0.288004 0.746659C0.480004 0.553761 0.717337 0.457647 1 0.458316C1.28334 0.458316 1.521 0.554766 1.713 0.747663C1.905 0.940561 2.00067 1.179 2 1.46299C2 1.74765 1.904 1.98643 1.712 2.17933C1.52 2.37223 1.28267 2.46834 1 2.46767ZM1 6.48638C0.71667 6.48638 0.479003 6.38993 0.287003 6.19703C0.0950034 6.00413 -0.000663206 5.76569 3.46021e-06 5.4817C3.46021e-06 5.19704 0.0960036 4.95826 0.288004 4.76536C0.480004 4.57247 0.717337 4.47635 1 4.47702C1.28334 4.47702 1.521 4.57347 1.713 4.76637C1.905 4.95927 2.00067 5.19771 2 5.4817C2 5.76636 1.904 6.00514 1.712 6.19803C1.52 6.39093 1.28267 6.48705 1 6.48638ZM1 10.5051C0.71667 10.5051 0.479003 10.4086 0.287003 10.2157C0.0950034 10.0228 -0.000663206 9.78439 3.46021e-06 9.50041C3.46021e-06 9.21575 0.0960036 8.97697 0.288004 8.78407C0.480004 8.59117 0.717337 8.49506 1 8.49573C1.28334 8.49573 1.521 8.59218 1.713 8.78508C1.905 8.97797 2.00067 9.21642 2 9.50041C2 9.78506 1.904 10.0238 1.712 10.2167C1.52 10.4096 1.28267 10.5058 1 10.5051Z" fill="black"/>
</svg>
