<svg width="18" height="14" viewBox="0 0 18 14" fill="none" xmlns="http://www.w3.org/2000/svg">
<path d="M15.6666 0.333328H2.33329C1.41663 0.333328 0.666626 1.08333 0.666626 1.99999V12C0.666626 12.9167 1.41663 13.6667 2.33329 13.6667H15.6666C16.5833 13.6667 17.3333 12.9167 17.3333 12V1.99999C17.3333 1.08333 16.5833 0.333328 15.6666 0.333328ZM15.3333 3.87499L9.88329 7.28333C9.34163 7.62499 8.65829 7.62499 8.11663 7.28333L2.66663 3.87499C2.58307 3.82809 2.50989 3.76471 2.45153 3.68871C2.39317 3.6127 2.35084 3.52564 2.32711 3.4328C2.30337 3.33996 2.29871 3.24327 2.31342 3.14858C2.32813 3.05389 2.36191 2.96317 2.41269 2.88191C2.46348 2.80065 2.53023 2.73054 2.6089 2.67582C2.68757 2.62111 2.77652 2.58292 2.87037 2.56358C2.96423 2.54423 3.06103 2.54413 3.15492 2.56328C3.24881 2.58244 3.33785 2.62044 3.41663 2.67499L8.99996 6.16666L14.5833 2.67499C14.6621 2.62044 14.7511 2.58244 14.845 2.56328C14.9389 2.54413 15.0357 2.54423 15.1295 2.56358C15.2234 2.58292 15.3124 2.62111 15.391 2.67582C15.4697 2.73054 15.5364 2.80065 15.5872 2.88191C15.638 2.96317 15.6718 3.05389 15.6865 3.14858C15.7012 3.24327 15.6966 3.33996 15.6728 3.4328C15.6491 3.52564 15.6067 3.6127 15.5484 3.68871C15.49 3.76471 15.4169 3.82809 15.3333 3.87499Z" fill="black"/>
</svg>
