<svg width="18" height="19" viewBox="0 0 18 19" fill="none" xmlns="http://www.w3.org/2000/svg">
<path fill-rule="evenodd" clip-rule="evenodd" d="M6 10.4864C6.53043 10.4864 7.03914 10.6981 7.41421 11.0749C7.78929 11.4517 8 11.9628 8 12.4957V16.5144C8 17.0473 7.78929 17.5584 7.41421 17.9353C7.03914 18.3121 6.53043 18.5238 6 18.5238H2C1.46957 18.5238 0.960859 18.3121 0.585786 17.9353C0.210714 17.5584 1.00268e-07 17.0473 1.00268e-07 16.5144V12.4957C1.00268e-07 11.9628 0.210714 11.4517 0.585786 11.0749C0.960859 10.6981 1.46957 10.4864 2 10.4864H6ZM16 10.4864C16.5046 10.4862 16.9906 10.6777 17.3605 11.0224C17.7305 11.3671 17.9572 11.8395 17.995 12.345L18 12.4957V16.5144C18.0002 17.0214 17.8096 17.5096 17.4665 17.8813C17.1234 18.2531 16.6532 18.4807 16.15 18.5188L16 18.5238H12C11.4954 18.5239 11.0094 18.3325 10.6395 17.9878C10.2695 17.6431 10.0428 17.1706 10.005 16.6651L10 16.5144V12.4957C9.99984 11.9888 10.1904 11.5005 10.5335 11.1288C10.8766 10.7571 11.3468 10.5294 11.85 10.4914L12 10.4864H16ZM6 12.4957H2V16.5144H6V12.4957ZM16 12.4957H12V16.5144H16V12.4957ZM16 0.439606C16.5046 0.439445 16.9906 0.630903 17.3605 0.975598C17.7305 1.32029 17.9572 1.79275 17.995 2.29826L18 2.44896V6.46767C18.0002 6.9746 17.8096 7.46286 17.4665 7.83458C17.1234 8.20629 16.6532 8.43397 16.15 8.47199L16 8.47702H12C11.4954 8.47718 11.0094 8.28572 10.6395 7.94103C10.2695 7.59633 10.0428 7.12387 10.005 6.61837L10 6.46767V2.44896C9.99984 1.94202 10.1904 1.45376 10.5335 1.08205C10.8766 0.710337 11.3468 0.482649 11.85 0.444629L12 0.439606H16ZM6 0.439606C6.50458 0.439445 6.99057 0.630903 7.36055 0.975598C7.73053 1.32029 7.95716 1.79275 7.995 2.29826L8 2.44896V6.46767C8.00016 6.9746 7.80959 7.46286 7.4665 7.83458C7.12341 8.20629 6.65315 8.43397 6.15 8.47199L6 8.47702H2C1.49542 8.47718 1.00943 8.28572 0.639452 7.94103C0.269471 7.59633 0.0428434 7.12387 0.00500021 6.61837L1.00268e-07 6.46767V2.44896C-0.000159579 1.94202 0.190406 1.45376 0.533497 1.08205C0.876588 0.710337 1.34684 0.482649 1.85 0.444629L2 0.439606H6ZM16 2.44896H12V6.46767H16V2.44896ZM6 2.44896H2V6.46767H6V2.44896Z" fill="black"/>
</svg>
